inDegrees=no
num_controls=7
num_derivatives=13
num_iterations=123
num_multipliers=7
num_parameters=0
num_slacks=7
num_states=26
objective=5.581113
objective_accelerations=0.427459
objective_balance=0.044177
objective_effort=0.417485
objective_height=4.620143
objective_ligament=0.071849
solver_duration=1274.531262
status=Solve_Succeeded
success=true
DataType=double
version=3
OpenSimVersion=4.4-2022-07-23-0e9fedc
endheader
time	/jointset/ground_pelvis/pelvis_tilt/value	/jointset/ground_pelvis/pelvis_tx/value	/jointset/ground_pelvis/pelvis_ty/value	/jointset/hip_l/hip_flexion_l/value	/jointset/hip_l/hip_adduction_l/value	/jointset/hip_l/hip_rotation_l/value	/jointset/back/lumbar_extension/value	/jointset/patellofemoral_l/patellar_flexion_l/value	/jointset/knee_l/knee_flexion_l/value	/jointset/knee_l/knee_adduction_l/value	/jointset/knee_l/knee_rotation_l/value	/jointset/ankle_l/ankle_angle_l/value	/jointset/subtalar_l/subtalar_angle_l/value	/jointset/ground_pelvis/pelvis_tilt/speed	/jointset/ground_pelvis/pelvis_tx/speed	/jointset/ground_pelvis/pelvis_ty/speed	/jointset/hip_l/hip_flexion_l/speed	/jointset/hip_l/hip_adduction_l/speed	/jointset/hip_l/hip_rotation_l/speed	/jointset/back/lumbar_extension/speed	/jointset/patellofemoral_l/patellar_flexion_l/speed	/jointset/knee_l/knee_flexion_l/speed	/jointset/knee_l/knee_adduction_l/speed	/jointset/knee_l/knee_rotation_l/speed	/jointset/ankle_l/ankle_angle_l/speed	/jointset/subtalar_l/subtalar_angle_l/speed	/forceset/tau_hip_flexion_l	/forceset/tau_hip_adduction_l	/forceset/tau_hip_rotation_l	/forceset/tau_knee_flexion_l	/forceset/tau_ankle_angle_l	/forceset/tau_subtalar_angle_l	/forceset/tau_lumbar_extension	lambda_cid13_p0	lambda_cid13_p1	lambda_cid13_p2	lambda_cid13_p3	lambda_cid13_p4	lambda_cid13_p5	lambda_cid14_p0	/jointset/ground_pelvis/pelvis_tilt/accel	/jointset/ground_pelvis/pelvis_tx/accel	/jointset/ground_pelvis/pelvis_ty/accel	/jointset/hip_l/hip_flexion_l/accel	/jointset/hip_l/hip_adduction_l/accel	/jointset/hip_l/hip_rotation_l/accel	/jointset/back/lumbar_extension/accel	/jointset/patellofemoral_l/patellar_flexion_l/accel	/jointset/knee_l/knee_flexion_l/accel	/jointset/knee_l/knee_adduction_l/accel	/jointset/knee_l/knee_rotation_l/accel	/jointset/ankle_l/ankle_angle_l/accel	/jointset/subtalar_l/subtalar_angle_l/accel	gamma_cid13_p0	gamma_cid13_p1	gamma_cid13_p2	gamma_cid13_p3	gamma_cid13_p4	gamma_cid13_p5	gamma_cid14_p0
1	-0.03516553874849859	-0.02823782431509684	0.7375711649750419	1.085065301387935	-0.336029279116054	0.0335079009461666	-0.9599310885968813	1.267971922053945	1.267971922053449	-0.08502887867067101	-0.1745328795200854	0.3077605693068255	0.06751245548026845	0.1145549916966731	0.02907941640949156	0.06384977721008871	-0.30301443997045	-0.003447632584001728	-0.06589175498595282	-0.002168638058263052	-0.1616815573357756	-0.1616815573357524	-3.088215599668701e-06	-2.588862270414465e-06	0.01768748822724385	0.004438323827632943	-0.3185419033894175	0.05226074622863296	-0.002706826530214768	-0.3510510004907538	-0.00195953291873417	0.02179545313160362	0.3965463144178106	-50.67242654627456	0.645040025851298	-1.971730014625168	13.95212967565819	-783.9258694796932	-57.568498230325	-0.2455553819261254	0.5543905357443923	0.003904265345314674	1.226836105711504	-3.957940359231737	-0.005915571275318827	-1.515872229229978	0.4220141981260105	-4.499509158074268	-4.499509158074571	-0.2301170709605253	-0.01130488654230527	-1.416627854711698	-0.6202867847108914	-9.244951061339557e-09	1.180605497632037e-08	4.785916675434148e-08	6.929799443703122e-09	-2.285251302868612e-08	7.424086854135474e-08	-1.178183941868837e-08
1.01	-0.03399249951795358	-0.02794676099302697	0.7382707539227726	1.081838093975639	-0.3360634699001231	0.03277273976112941	-0.9599310885968813	1.266130834738846	1.266130834738411	-0.08503892035299841	-0.1745328016294117	0.3078669404203346	0.06752677929361973	0.1200665958243319	0.02914116429506374	0.0760537189218304	-0.3424147924247827	-0.003384716322871282	-0.0811293216819486	0.00217987534884526	-0.2065035108193994	-0.2065035108194087	-0.002001664350883291	1.4434266446365e-05	0.00359601217008024	-0.001561442786528118	-0.317720316253221	0.05240170401714945	-0.002765045803500385	-0.3505580570314841	-0.002132440655094287	0.02189582024000884	0.3961090245337165	-50.68104832647158	0.586994179334116	-1.944238733318175	13.80126268981467	-783.3862035538526	-57.60349077141271	-0.2597683843389552	0.5516050942922044	0.008499743681922179	1.215023799404658	-3.929247328052702	0.0132613386044116	-1.526038188960466	0.4430462505965371	-4.468675968145999	-4.468675968150565	-0.1841975211938067	0.007661921563573523	-1.404016531413979	-0.5880124775482899	-1.43836223185758e-08	3.995618082897095e-09	6.895353840354709e-08	1.120680591759408e-08	-2.692058961564275e-08	7.910141476516776e-08	-1.618358195943139e-08
1.02	-0.03276393229752408	-0.02765484225339771	0.7390919524067208	1.078217250110898	-0.3360968582988217	0.03188553504929813	-0.9598872560206536	1.263842500383983	1.26384250038361	-0.08506884172395882	-0.1745326623057082	0.3078326749632332	0.06748146726527367	0.125660589672601	0.02925049992136802	0.08817168445351632	-0.3817417304598675	-0.003287155509857151	-0.09630046034498788	0.006599442299679383	-0.2511309652886038	-0.251130965288638	-0.003979025941426515	9.697754554988677e-06	-0.01043982589489454	-0.007488844511874499	-0.3168987291170303	0.05254266180566853	-0.002823265076855366	-0.3500651135722147	-0.0023053483914517	0.02199618734842013	0.3956717346496183	-50.70219250664212	0.5314257343686368	-1.917468046150298	13.70386156290403	-783.0134754562415	-57.62669176054711	-0.278105494353381	0.5708684798665064	0.01342181349170546	1.20964086970034	-3.94325747538214	0.001013339101355355	-1.502586622638753	0.4362249068712585	-4.460609355190386	-4.460609355189153	-0.2258741620124645	-0.0156568146640917	-1.405500256273975	-0.6058138069480615	-2.028805085620362e-08	-7.636259484586189e-09	8.833528276019667e-08	1.640733671261956e-08	-3.426753730949704e-08	7.658935297466201e-08	-1.989749486223988e-08
1.03	-0.0314797415605701	-0.02736139723607569	0.7400339039250365	1.074203897546088	-0.3361290722260068	0.03084698566079182	-0.9597969266483676	1.261108623844967	1.261108623844774	-0.08511852042662151	-0.1745325974727032	0.3076584189402541	0.06737733386557419	0.1311197230848077	0.02946625941466511	0.1002049560595943	-0.4208796530137296	-0.003148315449198035	-0.1113998720613145	0.01167151848549532	-0.2956367617769128	-0.2956367617769416	-0.005959450976759994	4.103280042565266e-06	-0.02439305772217159	-0.01331807500411597	-0.317239222140183	0.05287475513214715	-0.0029027510899738	-0.3493060487453595	-0.002574069520645319	0.02217543625610658	0.3967073136434712	-50.79038472040905	0.441967673772909	-1.872305860200319	13.29347746449362	-783.528306512583	-57.66531798222972	-0.3009853757412233	0.5247590578188833	0.02982075293522496	1.198112459203662	-3.891692884109152	0.02140721228560212	-1.51220738797325	0.5734619236230223	-4.444422941572011	-4.444422941571992	-0.1845490818907021	0.007137467599551572	-1.387488988286121	-0.568522970796455	-2.620029324363136e-08	-1.930713134466194e-08	1.076995513281467e-07	2.161729122520764e-08	-4.164794287178908e-08	7.400206049013255e-08	-2.360438909527353e-08
1.04	-0.03014269483230468	-0.0270649610766834	0.7410957765900418	1.069800639108025	-0.3361596801780337	0.02965772436675143	-0.9596497239243793	1.257929917711883	1.257929917711857	-0.08518808786116132	-0.1745325589381211	0.3073451797305362	0.06721549910086561	0.1362317879338568	0.02984872833542107	0.1121559137913571	-0.4597229051164226	-0.002965960479044087	-0.1264428414513863	0.01797411263875465	-0.3400968841020545	-0.3400968841020846	-0.00795677231596908	4.438063302910657e-06	-0.0382364632427117	-0.01902911751372966	-0.3175797151632221	0.05320684845863342	-0.002982237103111244	-0.3485469839184896	-0.002842790649851643	0.02235468516379826	0.3977428926374207	-50.89123213936927	0.354910302484962	-1.827737848362905	12.9340906425824	-784.213322971251	-57.69295424721756	-0.3288932763603629	0.5014547672350339	0.04676369898345045	1.193178094837303	-3.884323385148325	0.009716321000269717	-1.491298157387864	0.6823285003599597	-4.451474522556885	-4.451474522556993	-0.2292534227876009	-0.01447096310967164	-1.383534994926643	-0.5821762104225999	-2.916937365868577e-08	-3.11211202157836e-08	1.242497715707461e-07	2.143554152022308e-08	-4.512434562851092e-08	6.869597912708471e-08	-2.685683461998226e-08
1.05	-0.02875606173230436	-0.02676389610375179	0.7422766692916829	1.065010444010678	-0.336188249789915	0.02831844657483387	-0.959433846928755	1.25430705302882	1.25430705302879	-0.08527778009245407	-0.1745325174970768	0.3068940551941972	0.06699715167063854	0.1410546407017637	0.03038908360974316	0.1240007678578161	-0.4982614556921779	-0.002738750251894332	-0.1413961135376947	0.02535918563923277	-0.3844463830607285	-0.3844463830607431	-0.009982184433774185	3.602894151871567e-06	-0.05196958581417774	-0.02461660648426013	-0.3173306618472764	0.05347652121479593	-0.003081261571090457	-0.3475171023384859	-0.002914546744977897	0.0225638690026399	0.3981376692538223	-50.88171683895958	0.2274681362599025	-1.767524258283878	12.53995913852066	-784.1613981141544	-57.74829596108446	-0.3624079867556073	0.4666698656788037	0.06139825887438198	1.176850531034167	-3.830425295692345	0.03059189038776924	-1.494878154578904	0.790281572942785	-4.422231113305607	-4.422231113303243	-0.1892776089321902	0.007101982210342236	-1.365375556341518	-0.5434804200814793	-3.204648026210353e-08	-4.293958149350044e-08	1.407120528031782e-07	2.108530105843939e-08	-4.847874829755872e-08	6.330493561158316e-08	-3.009507862255584e-08
1.06	-0.02732240623779693	-0.02645668221463347	0.7435753528276855	1.059836502527201	-0.3362142735961612	0.0268301287779897	-0.959139382228513	1.250241584650014	1.250241584649977	-0.08538774494545773	-0.1745324860524905	0.3063061644985268	0.06672364031476366	0.1456362668340691	0.03107851157276157	0.1357140806636199	-0.5364721823440652	-0.002456799352129371	-0.1562508424370648	0.03369165356174542	-0.4286176232507183	-0.4286176232507164	-0.01201129665778649	2.438766127265153e-06	-0.06558969510904065	-0.03006190264331872	-0.3170816085313087	0.05374619397096455	-0.003180286039105121	-0.346487220758478	-0.002986302840104076	0.02277305284149042	0.3985324458702428	-50.88480430966246	0.1022869741964984	-1.707733501606456	12.19443694733558	-784.2794574342821	-57.79437475346743	-0.4021519010212921	0.4532094401148266	0.07657823672266836	1.166869842706252	-3.818758600374699	0.02066445552329776	-1.471589520000234	0.8718074847669084	-4.415822768820008	-4.415822768819925	-0.2299934440290407	-0.01453675488442828	-1.360932339606087	-0.5537376481282705	-3.509416101272527e-08	-5.521918902836988e-08	1.527475162045838e-07	2.14967082774456e-08	-5.239045822930766e-08	5.579979960462978e-08	-3.257805133591388e-08
1.07	-0.02584408393160117	-0.02614182693830692	0.7449904703419203	1.054282108051406	-0.3362372049590089	0.02519384825645495	-0.95875700064734	1.245735346472208	1.245735346472288	-0.08551810527576489	-0.1745324815065917	0.3055826168074214	0.06639638548150695	0.1499920284413049	0.03191759522702283	0.1472831655386983	-0.5743484528040064	-0.002117982255939607	-0.1709869637055392	0.04293040377835125	-0.4725947929141857	-0.4725947929141551	-0.01405946292827768	-1.339054458574342e-06	-0.07910232306491011	-0.03536173017066745	-0.316528618657682	0.05400691885166018	-0.003296512624548322	-0.3452392409311072	-0.002906861013614639	0.0230104976980519	0.3986287299488644	-50.81087852369561	-0.05563886227760376	-1.634741855986118	11.78620736504875	-783.9847271483029	-57.86350571068792	-0.4488273455618207	0.4213324241293445	0.09133555589035321	1.147977991084928	-3.763325858510147	0.04219833491585676	-1.471910775205409	0.9717699560137868	-4.383374116940309	-4.38337411693609	-0.1920518602209793	0.00676297091701792	-1.34380461205849	-0.514013536656163	-3.815091485628339e-08	-6.752332561947085e-08	1.645475105724241e-07	2.194862867096191e-08	-5.633181216439175e-08	4.818221186940766e-08	-3.50208500445264e-08
1.08	-0.02432328942870561	-0.02581782840021531	0.7465204887411414	1.048350697953091	-0.3362564065512426	0.02341074905324963	-0.9582778593308156	1.240790394587401	1.24079039458759	-0.08566891199711163	-0.1745325024855666	0.3047244675190613	0.06601695072665326	0.154130706172585	0.03290716392577277	0.15869425766083	-0.6118753068522007	-0.001710845229790238	-0.1856145787713862	0.05304360063120393	-0.5163603646508588	-0.5163603646507998	-0.01610057486523981	-2.666212536574537e-06	-0.09251001456002382	-0.04049788696273515	-0.3159756287839834	0.05426764373236475	-0.003412739210020163	-0.3439912611037251	-0.002827419187130555	0.02324794255462372	0.3987250140275471	-50.74952093550043	-0.2114680372244787	-1.561966035083649	11.42387807084203	-783.8600652914553	-57.92543876936093	-0.5031722329505364	0.4097926649237644	0.1066752456203415	1.135271292116887	-3.748875318025338	0.03432844151523922	-1.449888279474739	1.046696812016327	-4.37350318346112	-4.373503183461123	-0.2285825773232174	-0.01404662238282949	-1.339945047455021	-0.5210035010720768	-4.066376968346717e-08	-7.989459914347118e-08	1.720071077063112e-07	2.188090474302231e-08	-5.951226905659547e-08	3.918456671155432e-08	-3.682460261156278e-08
